<svg xmlns="http://www.w3.org/2000/svg" viewBox="0 0 240 234"><defs><style>.cls-1{fill:#00005b;}.cls-2{fill:#99f;}</style></defs><g id="Layer_2" data-name="Layer 2"><g id="Surfaces"><g id="Video_Audio_Surface" data-name="Video/Audio Surface"><g id="Outline_no_shadow" data-name="Outline no shadow"><rect class="cls-1" width="240" height="234" rx="42.5"/></g></g></g><g id="Outlined_Mnemonics_Logos" data-name="Outlined Mnemonics &amp; Logos"><g id="Ru"><path class="cls-2" d="M60.6748,165H41.51562c-.86035,0-1.28808-.48291-1.28808-1.449V61.53833q0-1.44909.96631-1.449,5.63305-.15858,9.65967-.24146,4.02246-.07947,7.728-.16113,3.70167-.07911,7.64746-.08057h8.77442q13.52416,0,22.70117,3.78369a30.74739,30.74739,0,0,1,14.0874,10.948q4.90943,7.16565,4.91065,17.6294a28.01332,28.01332,0,0,1-2.57618,12.075,30.3,30.3,0,0,1-7.084,9.57959,34.83192,34.83192,0,0,1-10.46484,6.5205q1.60765,2.09436,4.50781,6.35938,2.8982,4.26782,6.35986,9.499,3.46,5.23389,6.92285,10.54566,3.46,5.313,6.27881,9.8208c1.877,3.00635,3.30078,4.9851,4.2666,6.70093a1.75724,1.75724,0,0,1,.40235,1.28784.65708.65708,0,0,1-.72412.644H101.24658a3.363,3.363,0,0,1-1.44873-.24146,2.07127,2.07127,0,0,1-.80517-.7246c-1.18262-1.71558-2.65674-3.58619-4.42774-6.37867q-2.65649-4.18469-5.63476-9.33789-2.981-5.15076-5.957-10.14306-2.981-4.98853-5.23242-9.01612a10.7566,10.7566,0,0,0-1.85156-2.17334,3.2111,3.2111,0,0,0-2.0127-.56347H61.9624V163.551Q61.9624,165.00012,60.6748,165Zm1.2876-57.57666H74.52051a32.36211,32.36211,0,0,0,10.54541-1.52954,13.95719,13.95719,0,0,0,6.84277-4.74951,13.039,13.039,0,0,0,2.415-8.05q0-7.40332-5.47412-10.70654Q83.374,79.09,74.35986,79.0874q-3.86425,0-7.16455.08032-3.30176.08313-5.23291.24146Z"/><path class="cls-2" d="M201.91943,87.1875v60.32471q0,4.02648.08057,7.16455c.05273,2.093-.21,3.91943-.04932,5.47412.16114,1.55713.29444,2.4895.40284,3.561.10546.86036-.269,1.28809-1.127,1.28809H183.99951a1.88961,1.88961,0,0,1-1.93213-1.12695,16.66366,16.66366,0,0,1-.56347-2.11231,14.426,14.426,0,0,1-.2417-2.49536,28.7343,28.7343,0,0,1-11.27,6.19849,43.55911,43.55911,0,0,1-11.10889,1.52954,33.20536,33.20536,0,0,1-10.86719-1.69068,21.20044,21.20044,0,0,1-8.5332-5.47387,25.79165,25.79165,0,0,1-5.63477-9.66016c-1.34375-3.91675-1.64628-8.29984-1.64628-13.88188V87.7148c0-.85791.42774-1.6545,1.28809-1.6545h19.0553a1.13916,1.13916,0,0,1,1.28808,1.28809v45.99585a16.75217,16.75217,0,0,0,3.279,10.38452q2.89819,3.78478,9.66016,3.78345a18.26767,18.26767,0,0,0,6.76172-1.20752,21.291,21.291,0,0,0,5.63525-3.3003V87.1875c0-.74976.48291-1.1272,1.44922-1.1272h20.17383A.9976.9976,0,0,1,201.91943,87.1875Z"/></g></g></g></svg>